<svg width="25" height="24" viewBox="0 0 25 24" fill="none" xmlns="http://www.w3.org/2000/svg">
<path d="M10.2098 19.4171C12.4137 19.4171 14.4716 18.7354 16.1445 17.5991L22.4376 23.5833C22.7296 23.8611 23.1147 24 23.513 24C24.376 24 25 23.3687 25 22.5607C25 22.182 24.8673 21.8285 24.575 21.5508L18.3218 15.5917C19.6362 13.9506 20.4195 11.9179 20.4195 9.70858C20.4195 4.36823 15.8258 0 10.2098 0C4.58044 0 0 4.36823 0 9.70858C0 15.0489 4.58044 19.4171 10.2098 19.4171ZM10.2098 17.3214C5.81518 17.3214 2.20392 13.8748 2.20392 9.70858C2.20392 5.54235 5.81518 2.09577 10.2098 2.09577C14.5911 2.09577 18.2156 5.54235 18.2156 9.70858C18.2156 13.8748 14.5911 17.3214 10.2098 17.3214Z" fill="black"/>
</svg>
